<svg width="18" height="18" viewBox="0 0 18 18" fill="none" xmlns="http://www.w3.org/2000/svg">
<path d="M17.6402 9.20455C17.6402 8.56818 17.582 7.94091 17.4752 7.33636H9V10.8318H13.8438C13.6365 11.9727 13.0002 12.9318 12.0411 13.5455V15.8341H14.9593C16.6593 14.25 17.6402 11.9318 17.6402 9.20455Z" fill="#4285F4"/>
<path d="M9.00001 18C11.432 18 13.4661 17.1955 14.9593 15.8341L12.0411 13.5455C11.2366 14.1023 10.2138 14.4545 9.00001 14.4545C6.85251 14.4545 5.00478 12.9818 4.23659 11.0818H1.20477V13.4523C2.68114 16.1455 5.58114 18 9.00001 18Z" fill="#34A853"/>
<path d="M4.23641 11.0818C4.05232 10.5568 3.94777 9.98864 3.94777 9.39773C3.94777 8.80682 4.05232 8.23864 4.22732 7.71364V5.34318H1.20459C0.445495 6.75 0 8.03182 0 9.39773C0 10.7636 0.445495 12.0455 1.20459 13.4523L4.23641 11.0818Z" fill="#FBBC05"/>
<path d="M9.00001 4.34091C10.3184 4.34091 11.5048 4.80227 12.4775 5.71136L15.0275 3.16818C13.4571 1.69091 11.432 0.795455 9.00001 0.795455C5.58114 0.795455 2.68114 2.65227 1.20477 5.34318L4.2275 7.71364C5.00478 5.81364 6.85251 4.34091 9.00001 4.34091Z" fill="#EA4335"/>
</svg>
